<?xml version="1.0" encoding="utf-8"?>
<!-- Generator: Adobe Illustrator 26.3.1, SVG Export Plug-In . SVG Version: 6.00 Build 0)  -->
<svg version="1.1" id="Layer_1" xmlns="http://www.w3.org/2000/svg" xmlns:xlink="http://www.w3.org/1999/xlink" x="0px" y="0px"
	 viewBox="0 0 133.09 133.09" style="enable-background:new 0 0 133.09 133.09;" xml:space="preserve">
<style type="text/css">
	.st0{fill:#010202;}
</style>
<g>
	<path class="st0" d="M22.81,62.13c-2.16,4.73-3.35,10-3.35,15.53c0,1.8,0.12,3.57,0.37,5.3c0.19,0.44,0.45,0.98,0.77,1.63
		c-0.21-2.78-0.12-5.55,0.29-8.22c0.39-2.5,1.05-4.92,1.97-7.24C22.69,67.18,22.57,64.61,22.81,62.13z"/>
	<path class="st0" d="M46.25,80.12L33.17,66.6c-1.99,0.62-5.59,1.97-8.31,4.26c-0.69,1.88-1.2,3.83-1.51,5.83
		c-0.41,2.62-0.49,5.35-0.24,8.11c0.22,2.44,0.67,4.47,1.05,5.87c2.02,2.97,4.68,6.14,7.94,8.53l12.79-4.27L46.25,80.12z"/>
	<path class="st0" d="M55.23,47.62c-2.65,0.25-5.31,0.83-7.92,1.75c-4.48,1.56-7.27,3.58-7.3,3.59c0,0-4.28,5.54-5.18,11.78
		l13.33,13.77l16.14-3.1l6.73-18.36l-9.34-9.35C59.55,47.45,57.39,47.42,55.23,47.62z"/>
	<path class="st0" d="M46.39,47.06c2.81-0.99,5.68-1.63,8.54-1.9c2.19-0.21,4.37-0.2,6.53,0.03c2.59-2.21,4.14-3.19,5.4-3.7
		c-3.2-0.88-6.59-1.32-9.91-1.32c-4.97,0-9.95,1.01-14.52,2.92c-2.15,0.9-4.26,1.98-6.17,3.32c-0.36,0.26-0.71,0.55-1.07,0.82
		c-0.14,0.11-0.57,0.53-0.78,0.46c1.32,0.43,4,1.31,6.07,2.05C41.85,48.96,43.86,47.95,46.39,47.06z"/>
	<path class="st0" d="M46.07,97.14l-12.92,4.31c-0.02,1.44,0.37,5.38,0.33,5.45c2.23,1.8,4.68,3.34,7.25,4.58
		c2.95,1.42,6.08,2.45,9.3,3.06c2.92-0.11,10.13-0.55,12.98-2.42c0,0,0.01-0.01,0.02-0.02l-2.06-8.5L46.07,97.14z"/>
	<path class="st0" d="M73.86,91.97l-10.5,10.93l2.06,8.51c0.02,0.12,3.44-0.45,3.71-0.49c3.57-0.59,7.58-1.31,10.58-3.43
		c3.2-2.26,5.86-5.25,8.08-8.45c0.21-0.31,0.42-0.62,0.64-0.93c-0.17-1.97-0.45-5.21-0.66-7.42L73.86,91.97z"/>
	<path class="st0" d="M80.12,48.16c-0.19-0.14-0.37-0.29-0.56-0.43c-0.06-0.04-0.12-0.09-0.17-0.13c3.11,3.45,4.26,6.74,4.68,8.83
		c2.31,1.88,4.34,3.98,6.05,6.27c1.08,1.45,2.04,2.97,2.86,4.54c0-0.02,0-0.05,0.01-0.08c-1.42-4.87-3.84-9.4-7.05-13.31
		C84.21,51.76,82.26,49.85,80.12,48.16z"/>
	<path class="st0" d="M67.48,0h-0.94H65.6C29.37,0,0,29.37,0,65.6v0.94v0.94v65.6h65.6h0.94h0.94c36.23,0,65.6-29.37,65.6-65.6
		v-0.94V65.6V0H67.48z M104.55,31.36c4.71,8.28,5,16.01-3.24,17.54c-8.24,1.53,0.29,18.72,7.94,5.9c0,0,1.43,12.86-5,17.78
		c-6.43,4.92-5.7,13.12-6.09,17.19c-0.12,1.22-2.53,3.33-6.07,5.6c-1.88,3.74-4.34,7.14-7.33,10.13c-3.61,3.61-7.82,6.44-12.5,8.43
		c-4.85,2.05-10.01,3.09-15.31,3.09c-5.31,0-10.46-1.04-15.31-3.09c-4.68-1.98-8.89-4.82-12.5-8.43c-3.61-3.61-6.44-7.82-8.43-12.5
		c-2.05-4.85-3.09-10.01-3.09-15.31c0-5.31,1.04-10.46,3.09-15.31c1.98-4.68,4.82-8.89,8.43-12.5c3.61-3.61,7.82-6.44,12.5-8.43
		c0.73-0.31,1.47-0.59,2.21-0.86c3.89-7.13,11.42-15.13,25.97-17.17c0,0-8.45,9.34,0,7.95c6.8-1.12,12.65-9.21,12.65-9.21
		s-4.86,12.69,0,14.77c7.9,3.38,10.3-4.97,12.36-13.51c2.06-8.55,19.72-7.52,20.6-7.01C115.45,16.4,99.85,23.09,104.55,31.36z"/>
	<path class="st0" d="M82.82,58.63l-9.52-0.6l-6.74,18.4l7.45,13.04l13.85-1.27c0.05-0.1,0.1-0.19,0.15-0.27
		c1.04-1.59,3.48-6.17,4.54-15.36c-1.01-2.97-2.49-5.77-4.39-8.32C86.64,62.21,84.84,60.32,82.82,58.63z"/>
</g>
</svg>
